<?xml version="1.0" encoding="utf-8"?>
<!-- Generator: Adobe Illustrator 23.0.3, SVG Export Plug-In . SVG Version: 6.00 Build 0)  -->
<svg version="1.1" id="Layer_1" xmlns="http://www.w3.org/2000/svg" xmlns:xlink="http://www.w3.org/1999/xlink" x="0px" y="0px"
	 viewBox="0 0 5600 2800" style="enable-background:new 0 0 5600 2800;" xml:space="preserve">
<style type="text/css">
	.st0{opacity:0.46;fill:#FFFFFF;}
	.st1{opacity:0.33;}
	.st2{fill:#FF6B81;}
</style>
<g>
	<rect class="st0" width="5600" height="2800"/>
	<g class="st1">
		<path class="st2" d="M103.5,24.7c9.3,9.5,21.8,15.4,33.6,9.4s16.3-20.3,10.6-32.3c-0.3-0.6-0.6-1.2-0.9-1.8H63.1L0,32v40.4
			l80.2,40.7c2.3,1.7,3.6,3.7,3.2,6.3c-2.2,13.1,0.5,26.6,12.3,32.6c11.8,6,26,1.1,32.3-10.6c5.4-10.1,1.1-17.3,3.4-22.7
			c3.1-5,11.4-5.8,16.3-16.1c5.7-12,1.3-26.3-10.6-32.3c-11.8-6-24.3-0.1-33.6,9.4c-1.9,1.9-4.2,2-7,1.2L39.9,52.2l56.6-28.7
			C99.3,22.6,101.6,22.8,103.5,24.7z"/>
		<path class="st2" d="M1503.5,24.7c9.3,9.5,21.8,15.4,33.6,9.4s16.3-20.3,10.6-32.3c-0.3-0.6-0.6-1.2-0.9-1.8h-83.6L1400,32
			l-63.1-32h-83.6c-0.3,0.6-0.6,1.1-0.9,1.8c-5.7,12-1.3,26.3,10.6,32.3c11.8,6,24.3,0.1,33.6-9.4c1.9-1.9,4.2-2,7-1.2l56.6,28.7
			l-56.6,28.7c-2.8,0.8-5.1,0.7-7-1.2c-9.3-9.5-21.8-15.4-33.6-9.4c-11.8,6-16.3,20.3-10.6,32.3c4.9,10.3,13.3,11.1,16.3,16.1
			c2.3,5.4-2.1,12.6,3.4,22.7c6.3,11.7,20.4,16.6,32.3,10.6c11.8-6,14.5-19.6,12.3-32.6c-0.4-2.6,0.9-4.6,3.2-6.3l80.2-40.7
			l80.2,40.7c2.3,1.7,3.6,3.7,3.2,6.3c-2.2,13.1,0.5,26.6,12.3,32.6s26,1.1,32.3-10.6c5.4-10.1,1.1-17.3,3.4-22.7
			c3.1-5,11.4-5.8,16.3-16.1c5.7-12,1.3-26.3-10.6-32.3c-11.8-6-24.3-0.1-33.6,9.4c-1.9,1.9-4.2,2-7,1.2L1440,52.2l56.6-28.7
			C1499.3,22.6,1501.6,22.8,1503.5,24.7z"/>
		<path class="st2" d="M107.9,2686.6c0-8.4-1.5-16.5-4.4-24.1c2.3-14.1,11.2-75.8-8.8-92.6c-11.3-2.9-44.7,13.7-67,34.7
			c-8.8-1.8-18.1-2.8-27.6-2.8v169.7C59.6,2771.5,107.9,2733.5,107.9,2686.6z M32.5,2712.8c0,0-3.3-18.9,9.9-29.7
			c14.1-11.5,33.1-4.1,33.1-4.1S82,2726.1,32.5,2712.8z"/>
		<path class="st2" d="M131.3,2785.6c-2.3-5.4,2.1-12.6-3.4-22.7c-6.3-11.7-20.4-16.6-32.3-10.6c-11.8,6-14.5,19.6-12.3,32.6
			c0.4,2.6-0.9,4.6-3.2,6.3l-17.1,8.7h83.6C141.7,2791.3,134.2,2790.4,131.3,2785.6z"/>
		<path class="st2" d="M1507.9,2686.6c0-8.4-1.5-16.5-4.4-24.1c2.3-14.1,11.2-75.8-8.8-92.6c-11.3-2.9-44.7,13.7-67,34.7
			c-8.8-1.8-18.1-2.8-27.6-2.8s-18.8,1-27.6,2.8c-22.3-20.9-55.7-37.6-67-34.7c-20.1,16.8-11.2,78.5-8.8,92.6
			c-2.9,7.6-4.4,15.7-4.4,24.1c0,46.9,48.3,84.9,107.9,84.9C1459.6,2771.5,1507.9,2733.5,1507.9,2686.6z M1367.5,2712.8
			c-49.4,13.3-43-33.8-43-33.8s19-7.4,33.1,4.1C1370.7,2693.9,1367.5,2712.8,1367.5,2712.8z M1432.5,2712.8c0,0-3.3-18.9,9.9-29.7
			c14.1-11.5,33.1-4.1,33.1-4.1S1482,2726.1,1432.5,2712.8z"/>
		<path class="st2" d="M1531.3,2785.6c-2.3-5.4,2.1-12.6-3.4-22.7c-6.3-11.7-20.4-16.6-32.3-10.6c-11.8,6-14.5,19.6-12.3,32.6
			c0.4,2.6-0.9,4.6-3.2,6.3l-17.1,8.7h83.6C1541.7,2791.3,1534.2,2790.4,1531.3,2785.6z"/>
		<path class="st2" d="M1316.6,2785c2.2-13.1-0.5-26.6-12.3-32.6s-26-1.1-32.3,10.6c-5.4,10.1-1.1,17.3-3.4,22.7
			c-2.9,4.7-10.4,5.7-15.4,14.4h83.6l-17.1-8.7C1317.5,2789.6,1316.2,2787.6,1316.6,2785z"/>
		<path class="st2" d="M2716.6,2785c2.2-13.1-0.5-26.6-12.3-32.6s-26-1.1-32.3,10.6c-5.4,10.1-1.1,17.3-3.4,22.7
			c-2.9,4.7-10.4,5.7-15.4,14.4h83.6l-17.1-8.7C2717.5,2789.6,2716.2,2787.6,2716.6,2785z"/>
		<path class="st2" d="M2100,671.5c59.6,0,107.9-38,107.9-84.9c0-8.4-1.5-16.5-4.4-24.1c2.3-14.1,11.2-75.8-8.8-92.6
			c-11.3-2.9-44.7,13.7-67,34.7c-8.8-1.8-18.1-2.8-27.6-2.8s-18.8,1-27.6,2.8c-22.3-20.9-55.7-37.6-67-34.7
			c-20.1,16.8-11.2,78.5-8.8,92.6c-2.9,7.6-4.4,15.7-4.4,24.1C1992.1,633.5,2040.4,671.5,2100,671.5z M2142.4,583.2
			c14.1-11.5,33.1-4.1,33.1-4.1s6.5,47.1-43,33.8C2132.5,612.8,2129.3,593.9,2142.4,583.2z M2024.5,579.1c0,0,19-7.4,33.1,4.1
			c13.2,10.8,9.9,29.7,9.9,29.7C2018,626.1,2024.5,579.1,2024.5,579.1z"/>
		<path class="st2" d="M2203.5,724.7c9.3,9.5,21.8,15.4,33.6,9.4s16.3-20.3,10.6-32.3c-4.9-10.3-13.3-11.1-16.3-16.1
			c-2.3-5.4,2.1-12.6-3.4-22.7c-6.3-11.7-20.4-16.6-32.3-10.6c-11.8,6-14.5,19.6-12.3,32.6c0.4,2.6-0.9,4.6-3.2,6.3L2100,732
			l-80.2-40.7c-2.3-1.7-3.6-3.7-3.2-6.3c2.2-13.1-0.5-26.6-12.3-32.6s-26-1.1-32.3,10.6c-5.4,10.1-1.1,17.3-3.4,22.7
			c-3.1,5-11.4,5.8-16.3,16.1c-5.7,12-1.3,26.3,10.6,32.3c11.8,6,24.3,0.1,33.6-9.4c1.9-1.9,4.2-2,7-1.2l56.6,28.7l-56.6,28.7
			c-2.8,0.8-5.1,0.7-7-1.2c-9.3-9.5-21.8-15.4-33.6-9.4c-11.8,6-16.3,20.3-10.6,32.3c4.9,10.3,13.3,11.1,16.3,16.1
			c2.3,5.4-2.1,12.6,3.4,22.7c6.3,11.7,20.4,16.6,32.3,10.6c11.8-6,14.5-19.6,12.3-32.6c-0.4-2.6,0.9-4.6,3.2-6.3l80.2-40.7
			l80.2,40.7c2.3,1.7,3.6,3.7,3.2,6.3c-2.2,13.1,0.5,26.6,12.3,32.6s26,1.1,32.3-10.6c5.4-10.1,1.1-17.3,3.4-22.7
			c3.1-5,11.4-5.8,16.3-16.1c5.7-12,1.3-26.3-10.6-32.3c-11.8-6-24.3-0.1-33.6,9.4c-1.9,1.9-4.2,2-7,1.2l-56.6-28.7l56.6-28.7
			C2199.3,722.6,2201.6,722.8,2203.5,724.7z"/>
		<path class="st2" d="M700,671.5c59.6,0,107.9-38,107.9-84.9c0-8.4-1.5-16.5-4.4-24.1c2.3-14.1,11.2-75.8-8.8-92.6
			c-11.3-2.9-44.7,13.7-67,34.7c-8.8-1.8-18.1-2.8-27.6-2.8s-18.8,1-27.6,2.8c-22.3-20.9-55.7-37.6-67-34.7
			c-20.1,16.8-11.2,78.5-8.8,92.6c-2.9,7.6-4.4,15.7-4.4,24.1C592.1,633.5,640.4,671.5,700,671.5z M742.4,583.2
			c14.1-11.5,33.1-4.1,33.1-4.1s6.5,47.1-43,33.8C732.5,612.8,729.3,593.9,742.4,583.2z M624.5,579.1c0,0,19-7.4,33.1,4.1
			c13.2,10.8,9.9,29.7,9.9,29.7C618,626.1,624.5,579.1,624.5,579.1z"/>
		<path class="st2" d="M803.5,724.7c9.3,9.5,21.8,15.4,33.6,9.4s16.3-20.3,10.6-32.3c-4.9-10.3-13.3-11.1-16.3-16.1
			c-2.3-5.4,2.1-12.6-3.4-22.7c-6.3-11.7-20.4-16.6-32.3-10.6c-11.8,6-14.5,19.6-12.3,32.6c0.4,2.6-0.9,4.6-3.2,6.3L700,732
			l-80.2-40.7c-2.3-1.7-3.6-3.7-3.2-6.3c2.2-13.1-0.5-26.6-12.3-32.6s-26-1.1-32.3,10.6c-5.4,10.1-1.1,17.3-3.4,22.7
			c-3.1,5-11.4,5.8-16.3,16.1c-5.7,12-1.3,26.3,10.6,32.3c11.8,6,24.3,0.1,33.6-9.4c1.9-1.9,4.2-2,7-1.2l56.6,28.7l-56.6,28.7
			c-2.8,0.8-5.1,0.7-7-1.2c-9.3-9.5-21.8-15.4-33.6-9.4s-16.3,20.3-10.6,32.3c4.9,10.3,13.3,11.1,16.3,16.1
			c2.3,5.4-2.1,12.6,3.4,22.7c6.3,11.7,20.4,16.6,32.3,10.6c11.8-6,14.5-19.6,12.3-32.6c-0.4-2.6,0.9-4.6,3.2-6.3l80.2-40.7
			l80.2,40.7c2.3,1.7,3.6,3.7,3.2,6.3c-2.2,13.1,0.5,26.6,12.3,32.6s26,1.1,32.3-10.6c5.4-10.1,1.1-17.3,3.4-22.7
			c3.1-5,11.4-5.8,16.3-16.1c5.7-12,1.3-26.3-10.6-32.3c-11.8-6-24.3-0.1-33.6,9.4c-1.9,1.9-4.2,2-7,1.2l-56.6-28.7l56.6-28.7
			C799.3,722.6,801.6,722.8,803.5,724.7z"/>
		<path class="st2" d="M107.9,1286.6c0-8.4-1.5-16.5-4.4-24.1c2.3-14.1,11.2-75.8-8.8-92.6c-11.3-2.9-44.7,13.7-67,34.7
			c-8.8-1.8-18.1-2.8-27.6-2.8v169.7C59.6,1371.5,107.9,1333.5,107.9,1286.6z M32.5,1312.8c0,0-3.3-18.9,9.9-29.7
			c14.1-11.5,33.1-4.1,33.1-4.1S82,1326.1,32.5,1312.8z"/>
		<path class="st2" d="M103.5,1424.7c9.3,9.5,21.8,15.4,33.6,9.4s16.3-20.3,10.6-32.3c-4.9-10.3-13.3-11.1-16.3-16.1
			c-2.3-5.4,2.1-12.6-3.4-22.7c-6.3-11.7-20.4-16.6-32.3-10.6c-11.8,6-14.5,19.6-12.3,32.6c0.4,2.6-0.9,4.6-3.2,6.3L0,1432v40.4
			l80.2,40.7c2.3,1.7,3.6,3.7,3.2,6.3c-2.2,13.1,0.5,26.6,12.3,32.6s26,1.1,32.3-10.6c5.4-10.1,1.1-17.3,3.4-22.7
			c3.1-5,11.4-5.8,16.3-16.1c5.7-12,1.3-26.3-10.6-32.3c-11.8-6-24.3-0.1-33.6,9.4c-1.9,1.9-4.2,2-7,1.2l-56.6-28.7l56.6-28.7
			C99.3,1422.6,101.6,1422.8,103.5,1424.7z"/>
		<path class="st2" d="M1400,1371.5c59.6,0,107.9-38,107.9-84.9c0-8.4-1.5-16.5-4.4-24.1c2.3-14.1,11.2-75.8-8.8-92.6
			c-11.3-2.9-44.7,13.7-67,34.7c-8.8-1.8-18.1-2.8-27.6-2.8s-18.8,1-27.6,2.8c-22.3-20.9-55.7-37.6-67-34.7
			c-20.1,16.8-11.2,78.5-8.8,92.6c-2.9,7.6-4.4,15.7-4.4,24.1C1292.1,1333.5,1340.4,1371.5,1400,1371.5z M1442.4,1283.2
			c14.1-11.5,33.1-4.1,33.1-4.1s6.5,47.1-43,33.8C1432.5,1312.8,1429.3,1293.9,1442.4,1283.2z M1324.5,1279.1c0,0,19-7.4,33.1,4.1
			c13.2,10.8,9.9,29.7,9.9,29.7C1318,1326.1,1324.5,1279.1,1324.5,1279.1z"/>
		<path class="st2" d="M1503.5,1424.7c9.3,9.5,21.8,15.4,33.6,9.4c11.8-6,16.3-20.3,10.6-32.3c-4.9-10.3-13.3-11.1-16.3-16.1
			c-2.3-5.4,2.1-12.6-3.4-22.7c-6.3-11.7-20.4-16.6-32.3-10.6s-14.5,19.6-12.3,32.6c0.4,2.6-0.9,4.6-3.2,6.3L1400,1432l-80.2-40.7
			c-2.3-1.7-3.6-3.7-3.2-6.3c2.2-13.1-0.5-26.6-12.3-32.6s-26-1.1-32.3,10.6c-5.4,10.1-1.1,17.3-3.4,22.7c-3.1,5-11.4,5.8-16.3,16.1
			c-5.7,12-1.3,26.3,10.6,32.3c11.8,6,24.3,0.1,33.6-9.4c1.9-1.9,4.2-2,7-1.2l56.6,28.7l-56.6,28.7c-2.8,0.8-5.1,0.7-7-1.2
			c-9.3-9.5-21.8-15.4-33.6-9.4c-11.8,6-16.3,20.3-10.6,32.3c4.9,10.3,13.3,11.1,16.3,16.1c2.3,5.4-2.1,12.6,3.4,22.7
			c6.3,11.7,20.4,16.6,32.3,10.6c11.8-6,14.5-19.6,12.3-32.6c-0.4-2.6,0.9-4.6,3.2-6.3l80.2-40.7l80.2,40.7c2.3,1.7,3.6,3.7,3.2,6.3
			c-2.2,13.1,0.5,26.6,12.3,32.6s26,1.1,32.3-10.6c5.4-10.1,1.1-17.3,3.4-22.7c3.1-5,11.4-5.8,16.3-16.1c5.7-12,1.3-26.3-10.6-32.3
			c-11.8-6-24.3-0.1-33.6,9.4c-1.9,1.9-4.2,2-7,1.2l-56.6-28.7l56.6-28.7C1499.3,1422.6,1501.6,1422.8,1503.5,1424.7z"/>
		<path class="st2" d="M2800,1371.5c59.6,0,107.9-38,107.9-84.9c0-8.4-1.5-16.5-4.4-24.1c2.3-14.1,11.2-75.8-8.8-92.6
			c-11.3-2.9-44.7,13.7-67,34.7c-8.8-1.8-18.1-2.8-27.6-2.8s-18.8,1-27.6,2.8c-22.3-20.9-55.7-37.6-67-34.7
			c-20.1,16.8-11.2,78.5-8.8,92.6c-2.9,7.6-4.4,15.7-4.4,24.1C2692.1,1333.5,2740.4,1371.5,2800,1371.5z M2842.4,1283.2
			c14.1-11.5,33.1-4.1,33.1-4.1s6.5,47.1-43,33.8C2832.5,1312.8,2829.3,1293.9,2842.4,1283.2z M2724.5,1279.1c0,0,19-7.4,33.1,4.1
			c13.2,10.8,9.9,29.7,9.9,29.7C2718,1326.1,2724.5,1279.1,2724.5,1279.1z"/>
		<path class="st2" d="M2100,2071.5c59.6,0,107.9-38,107.9-84.9c0-8.4-1.5-16.5-4.4-24.1c2.3-14.1,11.2-75.8-8.8-92.6
			c-11.3-2.9-44.7,13.7-67,34.7c-8.8-1.8-18.1-2.8-27.6-2.8s-18.8,1-27.6,2.8c-22.3-20.9-55.7-37.6-67-34.7
			c-20.1,16.8-11.2,78.5-8.8,92.6c-2.9,7.6-4.4,15.7-4.4,24.1C1992.1,2033.5,2040.4,2071.5,2100,2071.5z M2142.4,1983.2
			c14.1-11.5,33.1-4.1,33.1-4.1s6.5,47.1-43,33.8C2132.5,2012.8,2129.3,1993.9,2142.4,1983.2z M2024.5,1979.1c0,0,19-7.4,33.1,4.1
			c13.2,10.8,9.9,29.7,9.9,29.7C2018,2026.1,2024.5,1979.1,2024.5,1979.1z"/>
		<path class="st2" d="M2203.5,2124.7c9.3,9.5,21.8,15.4,33.6,9.4s16.3-20.3,10.6-32.3c-4.9-10.3-13.3-11.1-16.3-16.1
			c-2.3-5.4,2.1-12.6-3.4-22.7c-6.3-11.7-20.4-16.6-32.3-10.6c-11.8,6-14.5,19.6-12.3,32.6c0.4,2.6-0.9,4.6-3.2,6.3L2100,2132
			l-80.2-40.7c-2.3-1.7-3.6-3.7-3.2-6.3c2.2-13.1-0.5-26.6-12.3-32.6s-26-1.1-32.3,10.6c-5.4,10.1-1.1,17.3-3.4,22.7
			c-3.1,5-11.4,5.8-16.3,16.1c-5.7,12-1.3,26.3,10.6,32.3c11.8,6,24.3,0.1,33.6-9.4c1.9-1.9,4.2-2,7-1.2l56.6,28.7l-56.6,28.7
			c-2.8,0.8-5.1,0.7-7-1.2c-9.3-9.5-21.8-15.4-33.6-9.4c-11.8,6-16.3,20.3-10.6,32.3c4.9,10.3,13.3,11.1,16.3,16.1
			c2.3,5.4-2.1,12.6,3.4,22.7c6.3,11.7,20.4,16.6,32.3,10.6c11.8-6,14.5-19.6,12.3-32.6c-0.4-2.6,0.9-4.6,3.2-6.3l80.2-40.7
			l80.2,40.7c2.3,1.7,3.6,3.7,3.2,6.3c-2.2,13.1,0.5,26.6,12.3,32.6s26,1.1,32.3-10.6c5.4-10.1,1.1-17.3,3.4-22.7
			c3.1-5,11.4-5.8,16.3-16.1c5.7-12,1.3-26.3-10.6-32.3c-11.8-6-24.3-0.1-33.6,9.4c-1.9,1.9-4.2,2-7,1.2l-56.6-28.7l56.6-28.7
			C2199.3,2122.6,2201.6,2122.8,2203.5,2124.7z"/>
		<path class="st2" d="M700,2071.5c59.6,0,107.9-38,107.9-84.9c0-8.4-1.5-16.5-4.4-24.1c2.3-14.1,11.2-75.8-8.8-92.6
			c-11.3-2.9-44.7,13.7-67,34.7c-8.8-1.8-18.1-2.8-27.6-2.8s-18.8,1-27.6,2.8c-22.3-20.9-55.7-37.6-67-34.7
			c-20.1,16.8-11.2,78.5-8.8,92.6c-2.9,7.6-4.4,15.7-4.4,24.1C592.1,2033.5,640.4,2071.5,700,2071.5z M742.4,1983.2
			c14.1-11.5,33.1-4.1,33.1-4.1s6.5,47.1-43,33.8C732.5,2012.8,729.3,1993.9,742.4,1983.2z M624.5,1979.1c0,0,19-7.4,33.1,4.1
			c13.2,10.8,9.9,29.7,9.9,29.7C618,2026.1,624.5,1979.1,624.5,1979.1z"/>
		<path class="st2" d="M803.5,2124.7c9.3,9.5,21.8,15.4,33.6,9.4s16.3-20.3,10.6-32.3c-4.9-10.3-13.3-11.1-16.3-16.1
			c-2.3-5.4,2.1-12.6-3.4-22.7c-6.3-11.7-20.4-16.6-32.3-10.6c-11.8,6-14.5,19.6-12.3,32.6c0.4,2.6-0.9,4.6-3.2,6.3L700,2132
			l-80.2-40.7c-2.3-1.7-3.6-3.7-3.2-6.3c2.2-13.1-0.5-26.6-12.3-32.6s-26-1.1-32.3,10.6c-5.4,10.1-1.1,17.3-3.4,22.7
			c-3.1,5-11.4,5.8-16.3,16.1c-5.7,12-1.3,26.3,10.6,32.3c11.8,6,24.3,0.1,33.6-9.4c1.9-1.9,4.2-2,7-1.2l56.6,28.7l-56.6,28.7
			c-2.8,0.8-5.1,0.7-7-1.2c-9.3-9.5-21.8-15.4-33.6-9.4s-16.3,20.3-10.6,32.3c4.9,10.3,13.3,11.1,16.3,16.1
			c2.3,5.4-2.1,12.6,3.4,22.7c6.3,11.7,20.4,16.6,32.3,10.6c11.8-6,14.5-19.6,12.3-32.6c-0.4-2.6,0.9-4.6,3.2-6.3l80.2-40.7
			l80.2,40.7c2.3,1.7,3.6,3.7,3.2,6.3c-2.2,13.1,0.5,26.6,12.3,32.6s26,1.1,32.3-10.6c5.4-10.1,1.1-17.3,3.4-22.7
			c3.1-5,11.4-5.8,16.3-16.1c5.7-12,1.3-26.3-10.6-32.3c-11.8-6-24.3-0.1-33.6,9.4c-1.9,1.9-4.2,2-7,1.2l-56.6-28.7l56.6-28.7
			C799.3,2122.6,801.6,2122.8,803.5,2124.7z"/>
		<path class="st2" d="M2903.5,24.7c9.3,9.5,21.8,15.4,33.6,9.4s16.3-20.3,10.6-32.3c-0.3-0.6-0.6-1.2-0.9-1.8h-83.6L2800,32
			l-63.1-32h-83.6c-0.3,0.6-0.6,1.1-0.9,1.8c-5.7,12-1.3,26.3,10.6,32.3c11.8,6,24.3,0.1,33.6-9.4c1.9-1.9,4.2-2,7-1.2l56.6,28.7
			l-56.6,28.7c-2.8,0.8-5.1,0.7-7-1.2c-9.3-9.5-21.8-15.4-33.6-9.4s-16.3,20.3-10.6,32.3c4.9,10.3,13.3,11.1,16.3,16.1
			c2.3,5.4-2.1,12.6,3.4,22.7c6.3,11.7,20.4,16.6,32.3,10.6c11.8-6,14.5-19.6,12.3-32.6c-0.4-2.6,0.9-4.6,3.2-6.3l80.2-40.7
			l80.2,40.7c2.3,1.7,3.6,3.7,3.2,6.3c-2.2,13.1,0.5,26.6,12.3,32.6s26,1.1,32.3-10.6c5.4-10.1,1.1-17.3,3.4-22.7
			c3.1-5,11.4-5.8,16.3-16.1c5.7-12,1.3-26.3-10.6-32.3c-11.8-6-24.3-0.1-33.6,9.4c-1.9,1.9-4.2,2-7,1.2L2840,52.2l56.6-28.7
			C2899.3,22.6,2901.6,22.8,2903.5,24.7z"/>
		<path class="st2" d="M4303.5,24.7c9.3,9.5,21.8,15.4,33.6,9.4s16.3-20.3,10.6-32.3c-0.3-0.6-0.6-1.2-0.9-1.8h-83.6L4200,32
			l-63.1-32h-83.6c-0.3,0.6-0.6,1.1-0.9,1.8c-5.7,12-1.3,26.3,10.6,32.3c11.8,6,24.3,0.1,33.6-9.4c1.9-1.9,4.2-2,7-1.2l56.6,28.7
			l-56.6,28.7c-2.8,0.8-5.1,0.7-7-1.2c-9.3-9.5-21.8-15.4-33.6-9.4s-16.3,20.3-10.6,32.3c4.9,10.3,13.3,11.1,16.3,16.1
			c2.3,5.4-2.1,12.6,3.4,22.7c6.3,11.7,20.4,16.6,32.3,10.6c11.8-6,14.5-19.6,12.3-32.6c-0.4-2.6,0.9-4.6,3.2-6.3l80.2-40.7
			l80.2,40.7c2.3,1.7,3.6,3.7,3.2,6.3c-2.2,13.1,0.5,26.6,12.3,32.6s26,1.1,32.3-10.6c5.4-10.1,1.1-17.3,3.4-22.7
			c3.1-5,11.4-5.8,16.3-16.1c5.7-12,1.3-26.3-10.6-32.3c-11.8-6-24.3-0.1-33.6,9.4c-1.9,1.9-4.2,2-7,1.2L4240,52.2l56.6-28.7
			C4299.3,22.6,4301.6,22.8,4303.5,24.7z"/>
		<path class="st2" d="M5536.9,0h-83.6c-0.3,0.6-0.6,1.1-0.9,1.8c-5.7,12-1.3,26.3,10.6,32.3c11.8,6,24.3,0.1,33.6-9.4
			c1.9-1.9,4.2-2,7-1.2l56.6,28.7l-56.6,28.7c-2.8,0.8-5.1,0.7-7-1.2c-9.3-9.5-21.8-15.4-33.6-9.4c-11.8,6-16.3,20.3-10.6,32.3
			c4.9,10.3,13.3,11.1,16.3,16.1c2.3,5.4-2.1,12.6,3.4,22.7c6.3,11.7,20.4,16.6,32.3,10.6c11.8-6,14.5-19.6,12.3-32.6
			c-0.4-2.6,0.9-4.6,3.2-6.3l80.2-40.7V32L5536.9,0z"/>
		<path class="st2" d="M2907.9,2686.6c0-8.4-1.5-16.5-4.4-24.1c2.3-14.1,11.2-75.8-8.8-92.6c-11.3-2.9-44.7,13.7-67,34.7
			c-8.8-1.8-18.1-2.8-27.6-2.8s-18.8,1-27.6,2.8c-22.3-20.9-55.7-37.6-67-34.7c-20.1,16.8-11.2,78.5-8.8,92.6
			c-2.9,7.6-4.4,15.7-4.4,24.1c0,46.9,48.3,84.9,107.9,84.9C2859.6,2771.5,2907.9,2733.5,2907.9,2686.6z M2767.5,2712.8
			c-49.4,13.3-43-33.8-43-33.8s19-7.4,33.1,4.1C2770.7,2693.9,2767.5,2712.8,2767.5,2712.8z M2832.5,2712.8c0,0-3.3-18.9,9.9-29.7
			c14.1-11.5,33.1-4.1,33.1-4.1S2882,2726.1,2832.5,2712.8z"/>
		<path class="st2" d="M2931.3,2785.6c-2.3-5.4,2.1-12.6-3.4-22.7c-6.3-11.7-20.4-16.6-32.3-10.6c-11.8,6-14.5,19.6-12.3,32.6
			c0.4,2.6-0.9,4.6-3.2,6.3l-17.1,8.7h83.6C2941.7,2791.3,2934.2,2790.4,2931.3,2785.6z"/>
		<path class="st2" d="M4307.9,2686.6c0-8.4-1.5-16.5-4.4-24.1c2.3-14.1,11.2-75.8-8.8-92.6c-11.3-2.9-44.7,13.7-67,34.7
			c-8.8-1.8-18.1-2.8-27.6-2.8s-18.8,1-27.6,2.8c-22.3-20.9-55.7-37.6-67-34.7c-20.1,16.8-11.2,78.5-8.8,92.6
			c-2.9,7.6-4.4,15.7-4.4,24.1c0,46.9,48.3,84.9,107.9,84.9C4259.6,2771.5,4307.9,2733.5,4307.9,2686.6z M4167.5,2712.8
			c-49.4,13.3-43-33.8-43-33.8s19-7.4,33.1,4.1C4170.7,2693.9,4167.5,2712.8,4167.5,2712.8z M4232.5,2712.8c0,0-3.3-18.9,9.9-29.7
			c14.1-11.5,33.1-4.1,33.1-4.1S4282,2726.1,4232.5,2712.8z"/>
		<path class="st2" d="M4331.3,2785.6c-2.3-5.4,2.1-12.6-3.4-22.7c-6.3-11.7-20.4-16.6-32.3-10.6c-11.8,6-14.5,19.6-12.3,32.6
			c0.4,2.6-0.9,4.6-3.2,6.3l-17.1,8.7h83.6C4341.7,2791.3,4334.2,2790.4,4331.3,2785.6z"/>
		<path class="st2" d="M4116.6,2785c2.2-13.1-0.5-26.6-12.3-32.6c-11.8-6-26-1.1-32.3,10.6c-5.4,10.1-1.1,17.3-3.4,22.7
			c-2.9,4.7-10.4,5.7-15.4,14.4h83.6l-17.1-8.7C4117.5,2789.6,4116.2,2787.6,4116.6,2785z"/>
		<path class="st2" d="M5505.4,2569.9c-20.1,16.8-11.2,78.5-8.8,92.6c-2.9,7.6-4.4,15.7-4.4,24.1c0,46.9,48.3,84.9,107.9,84.9
			v-169.7c-9.5,0-18.8,1-27.6,2.8C5550.1,2583.7,5516.7,2567,5505.4,2569.9z M5567.5,2712.8c-49.4,13.3-43-33.8-43-33.8
			s19-7.4,33.1,4.1C5570.7,2693.9,5567.5,2712.8,5567.5,2712.8z"/>
		<path class="st2" d="M5516.6,2785c2.2-13.1-0.5-26.6-12.3-32.6s-26-1.1-32.3,10.6c-5.4,10.1-1.1,17.3-3.4,22.7
			c-2.9,4.7-10.4,5.7-15.4,14.4h83.6l-17.1-8.7C5517.5,2789.6,5516.2,2787.6,5516.6,2785z"/>
		<path class="st2" d="M4900,671.5c59.6,0,107.9-38,107.9-84.9c0-8.4-1.5-16.5-4.4-24.1c2.3-14.1,11.2-75.8-8.8-92.6
			c-11.3-2.9-44.7,13.7-67,34.7c-8.8-1.8-18.1-2.8-27.6-2.8s-18.8,1-27.6,2.8c-22.3-20.9-55.7-37.6-67-34.7
			c-20.1,16.8-11.2,78.5-8.8,92.6c-2.9,7.6-4.4,15.7-4.4,24.1C4792.1,633.5,4840.4,671.5,4900,671.5z M4942.4,583.2
			c14.1-11.5,33.1-4.1,33.1-4.1s6.5,47.1-43,33.8C4932.5,612.8,4929.3,593.9,4942.4,583.2z M4824.5,579.1c0,0,19-7.4,33.1,4.1
			c13.2,10.8,9.9,29.7,9.9,29.7C4818,626.1,4824.5,579.1,4824.5,579.1z"/>
		<path class="st2" d="M5003.5,724.7c9.3,9.5,21.8,15.4,33.6,9.4c11.8-6,16.3-20.3,10.6-32.3c-4.9-10.3-13.3-11.1-16.3-16.1
			c-2.3-5.4,2.1-12.6-3.4-22.7c-6.3-11.7-20.4-16.6-32.3-10.6c-11.8,6-14.5,19.6-12.3,32.6c0.4,2.6-0.9,4.6-3.2,6.3L4900,732
			l-80.2-40.7c-2.3-1.7-3.6-3.7-3.2-6.3c2.2-13.1-0.5-26.6-12.3-32.6s-26-1.1-32.3,10.6c-5.4,10.1-1.1,17.3-3.4,22.7
			c-3.1,5-11.4,5.8-16.3,16.1c-5.7,12-1.3,26.3,10.6,32.3s24.3,0.1,33.6-9.4c1.9-1.9,4.2-2,7-1.2l56.6,28.7l-56.6,28.7
			c-2.8,0.8-5.1,0.7-7-1.2c-9.3-9.5-21.8-15.4-33.6-9.4c-11.8,6-16.3,20.3-10.6,32.3c4.9,10.3,13.3,11.1,16.3,16.1
			c2.3,5.4-2.1,12.6,3.4,22.7c6.3,11.7,20.4,16.6,32.3,10.6c11.8-6,14.5-19.6,12.3-32.6c-0.4-2.6,0.9-4.6,3.2-6.3l80.2-40.7
			l80.2,40.7c2.3,1.7,3.6,3.7,3.2,6.3c-2.2,13.1,0.5,26.6,12.3,32.6s26,1.1,32.3-10.6c5.4-10.1,1.1-17.3,3.4-22.7
			c3.1-5,11.4-5.8,16.3-16.1c5.7-12,1.3-26.3-10.6-32.3c-11.8-6-24.3-0.1-33.6,9.4c-1.9,1.9-4.2,2-7,1.2l-56.6-28.7l56.6-28.7
			C4999.3,722.6,5001.6,722.8,5003.5,724.7z"/>
		<path class="st2" d="M3500,671.5c59.6,0,107.9-38,107.9-84.9c0-8.4-1.5-16.5-4.4-24.1c2.3-14.1,11.2-75.8-8.8-92.6
			c-11.3-2.9-44.7,13.7-67,34.7c-8.8-1.8-18.1-2.8-27.6-2.8s-18.8,1-27.6,2.8c-22.3-20.9-55.7-37.6-67-34.7
			c-20.1,16.8-11.2,78.5-8.8,92.6c-2.9,7.6-4.4,15.7-4.4,24.1C3392.1,633.5,3440.4,671.5,3500,671.5z M3542.4,583.2
			c14.1-11.5,33.1-4.1,33.1-4.1s6.5,47.1-43,33.8C3532.5,612.8,3529.3,593.9,3542.4,583.2z M3424.5,579.1c0,0,19-7.4,33.1,4.1
			c13.2,10.8,9.9,29.7,9.9,29.7C3418,626.1,3424.5,579.1,3424.5,579.1z"/>
		<path class="st2" d="M3603.5,724.7c9.3,9.5,21.8,15.4,33.6,9.4s16.3-20.3,10.6-32.3c-4.9-10.3-13.3-11.1-16.3-16.1
			c-2.3-5.4,2.1-12.6-3.4-22.7c-6.3-11.7-20.4-16.6-32.3-10.6c-11.8,6-14.5,19.6-12.3,32.6c0.4,2.6-0.9,4.6-3.2,6.3L3500,732
			l-80.2-40.7c-2.3-1.7-3.6-3.7-3.2-6.3c2.2-13.1-0.5-26.6-12.3-32.6s-26-1.1-32.3,10.6c-5.4,10.1-1.1,17.3-3.4,22.7
			c-3.1,5-11.4,5.8-16.3,16.1c-5.7,12-1.3,26.3,10.6,32.3c11.8,6,24.3,0.1,33.6-9.4c1.9-1.9,4.2-2,7-1.2l56.6,28.7l-56.6,28.7
			c-2.8,0.8-5.1,0.7-7-1.2c-9.3-9.5-21.8-15.4-33.6-9.4s-16.3,20.3-10.6,32.3c4.9,10.3,13.3,11.1,16.3,16.1
			c2.3,5.4-2.1,12.6,3.4,22.7c6.3,11.7,20.4,16.6,32.3,10.6c11.8-6,14.5-19.6,12.3-32.6c-0.4-2.6,0.9-4.6,3.2-6.3l80.2-40.7
			l80.2,40.7c2.3,1.7,3.6,3.7,3.2,6.3c-2.2,13.1,0.5,26.6,12.3,32.6s26,1.1,32.3-10.6c5.4-10.1,1.1-17.3,3.4-22.7
			c3.1-5,11.4-5.8,16.3-16.1c5.7-12,1.3-26.3-10.6-32.3c-11.8-6-24.3-0.1-33.6,9.4c-1.9,1.9-4.2,2-7,1.2l-56.6-28.7l56.6-28.7
			C3599.3,722.6,3601.6,722.8,3603.5,724.7z"/>
		<path class="st2" d="M2903.5,1424.7c9.3,9.5,21.8,15.4,33.6,9.4s16.3-20.3,10.6-32.3c-4.9-10.3-13.3-11.1-16.3-16.1
			c-2.3-5.4,2.1-12.6-3.4-22.7c-6.3-11.7-20.4-16.6-32.3-10.6s-14.5,19.6-12.3,32.6c0.4,2.6-0.9,4.6-3.2,6.3L2800,1432l-80.2-40.7
			c-2.3-1.7-3.6-3.7-3.2-6.3c2.2-13.1-0.5-26.6-12.3-32.6s-26-1.1-32.3,10.6c-5.4,10.1-1.1,17.3-3.4,22.7c-3.1,5-11.4,5.8-16.3,16.1
			c-5.7,12-1.3,26.3,10.6,32.3c11.8,6,24.3,0.1,33.6-9.4c1.9-1.9,4.2-2,7-1.2l56.6,28.7l-56.6,28.7c-2.8,0.8-5.1,0.7-7-1.2
			c-9.3-9.5-21.8-15.4-33.6-9.4s-16.3,20.3-10.6,32.3c4.9,10.3,13.3,11.1,16.3,16.1c2.3,5.4-2.1,12.6,3.4,22.7
			c6.3,11.7,20.4,16.6,32.3,10.6s14.5-19.6,12.3-32.6c-0.4-2.6,0.9-4.6,3.2-6.3l80.2-40.7l80.2,40.7c2.3,1.7,3.6,3.7,3.2,6.3
			c-2.2,13.1,0.5,26.6,12.3,32.6s26,1.1,32.3-10.6c5.4-10.1,1.1-17.3,3.4-22.7c3.1-5,11.4-5.8,16.3-16.1c5.7-12,1.3-26.3-10.6-32.3
			c-11.8-6-24.3-0.1-33.6,9.4c-1.9,1.9-4.2,2-7,1.2l-56.6-28.7l56.6-28.7C2899.3,1422.6,2901.6,1422.8,2903.5,1424.7z"/>
		<path class="st2" d="M4200,1371.5c59.6,0,107.9-38,107.9-84.9c0-8.4-1.5-16.5-4.4-24.1c2.3-14.1,11.2-75.8-8.8-92.6
			c-11.3-2.9-44.7,13.7-67,34.7c-8.8-1.8-18.1-2.8-27.6-2.8s-18.8,1-27.6,2.8c-22.3-20.9-55.7-37.6-67-34.7
			c-20.1,16.8-11.2,78.5-8.8,92.6c-2.9,7.6-4.4,15.7-4.4,24.1C4092.1,1333.5,4140.4,1371.5,4200,1371.5z M4242.4,1283.2
			c14.1-11.5,33.1-4.1,33.1-4.1s6.5,47.1-43,33.8C4232.5,1312.8,4229.3,1293.9,4242.4,1283.2z M4124.5,1279.1c0,0,19-7.4,33.1,4.1
			c13.2,10.8,9.9,29.7,9.9,29.7C4118,1326.1,4124.5,1279.1,4124.5,1279.1z"/>
		<path class="st2" d="M4303.5,1424.7c9.3,9.5,21.8,15.4,33.6,9.4c11.8-6,16.3-20.3,10.6-32.3c-4.9-10.3-13.3-11.1-16.3-16.1
			c-2.3-5.4,2.1-12.6-3.4-22.7c-6.3-11.7-20.4-16.6-32.3-10.6s-14.5,19.6-12.3,32.6c0.4,2.6-0.9,4.6-3.2,6.3L4200,1432l-80.2-40.7
			c-2.3-1.7-3.6-3.7-3.2-6.3c2.2-13.1-0.5-26.6-12.3-32.6s-26-1.1-32.3,10.6c-5.4,10.1-1.1,17.3-3.4,22.7c-3.1,5-11.4,5.8-16.3,16.1
			c-5.7,12-1.3,26.3,10.6,32.3c11.8,6,24.3,0.1,33.6-9.4c1.9-1.9,4.2-2,7-1.2l56.6,28.7l-56.6,28.7c-2.8,0.8-5.1,0.7-7-1.2
			c-9.3-9.5-21.8-15.4-33.6-9.4s-16.3,20.3-10.6,32.3c4.9,10.3,13.3,11.1,16.3,16.1c2.3,5.4-2.1,12.6,3.4,22.7
			c6.3,11.7,20.4,16.6,32.3,10.6c11.9-6,14.5-19.6,12.3-32.6c-0.4-2.6,0.9-4.6,3.2-6.3l80.2-40.7l80.2,40.7c2.3,1.7,3.6,3.7,3.2,6.3
			c-2.2,13.1,0.5,26.6,12.3,32.6s26,1.1,32.3-10.6c5.4-10.1,1.1-17.3,3.4-22.7c3.1-5,11.4-5.8,16.3-16.1c5.7-12,1.3-26.3-10.6-32.3
			c-11.8-6-24.3-0.1-33.6,9.4c-1.9,1.9-4.2,2-7,1.2l-56.6-28.7l56.6-28.7C4299.3,1422.6,4301.6,1422.8,4303.5,1424.7z"/>
		<path class="st2" d="M5505.4,1169.9c-20.1,16.8-11.2,78.5-8.8,92.6c-2.9,7.6-4.4,15.7-4.4,24.1c0,46.9,48.3,84.9,107.9,84.9
			v-169.7c-9.5,0-18.8,1-27.6,2.8C5550.1,1183.7,5516.7,1167,5505.4,1169.9z M5567.5,1312.8c-49.4,13.3-43-33.8-43-33.8
			s19-7.4,33.1,4.1C5570.7,1293.9,5567.5,1312.8,5567.5,1312.8z"/>
		<path class="st2" d="M5516.6,1385c2.2-13.1-0.5-26.6-12.3-32.6s-26-1.1-32.3,10.6c-5.4,10.1-1.1,17.3-3.4,22.7
			c-3.1,5-11.4,5.8-16.3,16.1c-5.7,12-1.3,26.3,10.6,32.3c11.8,6,24.3,0.1,33.6-9.4c1.9-1.9,4.2-2,7-1.2l56.6,28.7l-56.6,28.7
			c-2.8,0.8-5.1,0.7-7-1.2c-9.3-9.5-21.8-15.4-33.6-9.4c-11.8,6-16.3,20.3-10.6,32.3c4.9,10.3,13.3,11.1,16.3,16.1
			c2.3,5.4-2.1,12.6,3.4,22.7c6.3,11.7,20.4,16.6,32.3,10.6s14.5-19.6,12.3-32.6c-0.4-2.6,0.9-4.6,3.2-6.3l80.2-40.7V1432
			l-80.2-40.7C5517.5,1389.6,5516.2,1387.6,5516.6,1385z"/>
		<path class="st2" d="M4900,2071.5c59.6,0,107.9-38,107.9-84.9c0-8.4-1.5-16.5-4.4-24.1c2.3-14.1,11.2-75.8-8.8-92.6
			c-11.3-2.9-44.7,13.7-67,34.7c-8.8-1.8-18.1-2.8-27.6-2.8s-18.8,1-27.6,2.8c-22.3-20.9-55.7-37.6-67-34.7
			c-20.1,16.8-11.2,78.5-8.8,92.6c-2.9,7.6-4.4,15.7-4.4,24.1C4792.1,2033.5,4840.4,2071.5,4900,2071.5z M4942.4,1983.2
			c14.1-11.5,33.1-4.1,33.1-4.1s6.5,47.1-43,33.8C4932.5,2012.8,4929.3,1993.9,4942.4,1983.2z M4824.5,1979.1c0,0,19-7.4,33.1,4.1
			c13.2,10.8,9.9,29.7,9.9,29.7C4818,2026.1,4824.5,1979.1,4824.5,1979.1z"/>
		<path class="st2" d="M5003.5,2124.7c9.3,9.5,21.8,15.4,33.6,9.4c11.8-6,16.3-20.3,10.6-32.3c-4.9-10.3-13.3-11.1-16.3-16.1
			c-2.3-5.4,2.1-12.6-3.4-22.7c-6.3-11.7-20.4-16.6-32.3-10.6c-11.8,6-14.5,19.6-12.3,32.6c0.4,2.6-0.9,4.6-3.2,6.3L4900,2132
			l-80.2-40.7c-2.3-1.7-3.6-3.7-3.2-6.3c2.2-13.1-0.5-26.6-12.3-32.6s-26-1.1-32.3,10.6c-5.4,10.1-1.1,17.3-3.4,22.7
			c-3.1,5-11.4,5.8-16.3,16.1c-5.7,12-1.3,26.3,10.6,32.3c11.8,6,24.3,0.1,33.6-9.4c1.9-1.9,4.2-2,7-1.2l56.6,28.7l-56.6,28.7
			c-2.8,0.8-5.1,0.7-7-1.2c-9.3-9.5-21.8-15.4-33.6-9.4c-11.8,6-16.3,20.3-10.6,32.3c4.9,10.3,13.3,11.1,16.3,16.1
			c2.3,5.4-2.1,12.6,3.4,22.7c6.3,11.7,20.4,16.6,32.3,10.6s14.5-19.6,12.3-32.6c-0.4-2.6,0.9-4.6,3.2-6.3l80.2-40.7l80.2,40.7
			c2.3,1.7,3.6,3.7,3.2,6.3c-2.2,13.1,0.5,26.6,12.3,32.6s26,1.1,32.3-10.6c5.4-10.1,1.1-17.3,3.4-22.7c3.1-5,11.4-5.8,16.3-16.1
			c5.7-12,1.3-26.3-10.6-32.3c-11.8-6-24.3-0.1-33.6,9.4c-1.9,1.9-4.2,2-7,1.2l-56.6-28.7l56.6-28.7
			C4999.3,2122.6,5001.6,2122.8,5003.5,2124.7z"/>
		<path class="st2" d="M3500,2071.5c59.6,0,107.9-38,107.9-84.9c0-8.4-1.5-16.5-4.4-24.1c2.3-14.1,11.2-75.8-8.8-92.6
			c-11.3-2.9-44.7,13.7-67,34.7c-8.8-1.8-18.1-2.8-27.6-2.8s-18.8,1-27.6,2.8c-22.3-20.9-55.7-37.6-67-34.7
			c-20.1,16.8-11.2,78.5-8.8,92.6c-2.9,7.6-4.4,15.7-4.4,24.1C3392.1,2033.5,3440.4,2071.5,3500,2071.5z M3542.4,1983.2
			c14.1-11.5,33.1-4.1,33.1-4.1s6.5,47.1-43,33.8C3532.5,2012.8,3529.3,1993.9,3542.4,1983.2z M3424.5,1979.1c0,0,19-7.4,33.1,4.1
			c13.2,10.8,9.9,29.7,9.9,29.7C3418,2026.1,3424.5,1979.1,3424.5,1979.1z"/>
		<path class="st2" d="M3603.5,2124.7c9.3,9.5,21.8,15.4,33.6,9.4s16.3-20.3,10.6-32.3c-4.9-10.3-13.3-11.1-16.3-16.1
			c-2.3-5.4,2.1-12.6-3.4-22.7c-6.3-11.7-20.4-16.6-32.3-10.6c-11.8,6-14.5,19.6-12.3,32.6c0.4,2.6-0.9,4.6-3.2,6.3L3500,2132
			l-80.2-40.7c-2.3-1.7-3.6-3.7-3.2-6.3c2.2-13.1-0.5-26.6-12.3-32.6s-26-1.1-32.3,10.6c-5.4,10.1-1.1,17.3-3.4,22.7
			c-3.1,5-11.4,5.8-16.3,16.1c-5.7,12-1.3,26.3,10.6,32.3c11.8,6,24.3,0.1,33.6-9.4c1.9-1.9,4.2-2,7-1.2l56.6,28.7l-56.6,28.7
			c-2.8,0.8-5.1,0.7-7-1.2c-9.3-9.5-21.8-15.4-33.6-9.4s-16.3,20.3-10.6,32.3c4.9,10.3,13.3,11.1,16.3,16.1
			c2.3,5.4-2.1,12.6,3.4,22.7c6.3,11.7,20.4,16.6,32.3,10.6c11.8-6,14.5-19.6,12.3-32.6c-0.4-2.6,0.9-4.6,3.2-6.3l80.2-40.7
			l80.2,40.7c2.3,1.7,3.6,3.7,3.2,6.3c-2.2,13.1,0.5,26.6,12.3,32.6s26,1.1,32.3-10.6c5.4-10.1,1.1-17.3,3.4-22.7
			c3.1-5,11.4-5.8,16.3-16.1c5.7-12,1.3-26.3-10.6-32.3c-11.8-6-24.3-0.1-33.6,9.4c-1.9,1.9-4.2,2-7,1.2l-56.6-28.7l56.6-28.7
			C3599.3,2122.6,3601.6,2122.8,3603.5,2124.7z"/>
	</g>
</g>
</svg>
